# xmcd CD database file
#
# Track frame offsets:
#	150
#	20400
#	68592
#	123000
#	169725
#
# Disc length: 2957 seconds
#
# Revision: 0
# Processed by: cddbd v1.5.1PL2 Copyright (c) Steve Scherf et al.
# Submitted via: Feurio! 1.68 - http://www.feurio.com
#
DISCID=330b8b05
DTITLE=Oreo Blue - Live By Demand CD 2
DYEAR=1900
DGENRE=
TTITLE0=Bobby McGee
TTITLE1=Knockin' On Heaven's Door
TTITLE2=I'm Alright
TTITLE3=Rock Me Baby
TTITLE4=All Along The Watchtower
EXTD=
EXTT0=
EXTT1=
EXTT2=
EXTT3=
EXTT4=
PLAYORDER=
